<svg xml:space="preserve" viewBox="95.57340159999998 394.582016 1085.44 219.136" version="1.1" xmlns:xlink="http://www.w3.org/1999/xlink" xmlns="http://www.w3.org/2000/svg" style="max-height: 500px" width="1085.44" height="219.136">
<desc>Created with Fabric.js 5.3.0</desc>
<defs>
</defs>
<g id="background-logo" transform="matrix(1 0 0 1 640 512)">
<rect height="1024" width="1280" ry="0" rx="0" y="-512" x="-640" paint-order="stroke" style="stroke: none; stroke-width: 0; stroke-dasharray: none; stroke-linecap: butt; stroke-dashoffset: 0; stroke-linejoin: miter; stroke-miterlimit: 4; fill: rgb(255,255,255); fill-opacity: 0; fill-rule: nonzero; opacity: 1;"/>
</g>
<g id="text-logo" transform="matrix(1.9211538461538462 0 0 1.9211538461538462 638.7829700129766 502.8064917736942)">
<g paint-order="stroke" style="">
		<g id="text-logo-path-0" transform="matrix(1 0 0 1 0 0)">
<linearGradient y2="101.21311926206945" x2="-2.1662698292312825" y1="-14.786880737930545" x1="-2.1662698292312825" gradientTransform="matrix(1 0 0 1 2.233022059309917 -75.36937499999999)" gradientUnits="userSpaceOnUse" id="SVGID_202744">
<stop style="stop-color:rgb(252,227,138);stop-opacity: 1" offset="0%"/>
<stop style="stop-color:rgb(243,129,129);stop-opacity: 1" offset="100%"/>
</linearGradient>
<path stroke-linecap="round" d="M 2.45 -55.58 L 2.35 -53.03 C 2.15 -52.38 2.2 -51.83 2.55 -51.38 C 2.9 -50.93 3.51 -50.68 4.41 -50.68 L 7.61 -50.78 C 12.67 -50.93 17.68 -50.98 22.58 -50.98 L 22.68 -45.52 C 22.83 -41.96 22.88 -39.31 22.88 -37.56 C 22.83 -34.4 22.63 -27.29 22.23 -16.22 L 21.83 -3.51 L 21.83 -1.9 C 21.83 -1.15 21.88 -0.65 22.03 -0.4 C 22.18 -0.15 22.63 0 23.49 0 L 31.1 0 C 31.35 0 31.6 -0.1 31.75 -0.25 C 31.9 -0.4 32 -0.75 32 -1.35 L 32 -1.85 L 31.9 -6.06 C 31.9 -9.31 31.85 -13.22 31.8 -17.78 C 31.75 -22.28 31.7 -26.94 31.7 -31.7 C 31.7 -36.35 31.75 -39.26 31.8 -40.41 L 32 -50.98 L 50.03 -50.98 C 52.43 -50.98 53.63 -51.88 53.63 -53.73 C 53.43 -57.04 53.33 -59.64 53.33 -61.54 C 53.33 -63.65 53.38 -65.4 53.48 -66.85 C 53.58 -68.3 53.63 -69.2 53.63 -69.55 C 53.58 -70.11 53.28 -70.66 52.68 -71.21 C 52.13 -71.66 51.28 -71.91 50.03 -71.91 L 49.52 -71.91 C 48.87 -71.86 47.57 -71.81 45.52 -71.81 C 42.71 -71.81 38.86 -71.86 33.95 -72.01 L 27.79 -72.11 C 26.34 -72.11 23.89 -72.06 20.33 -71.91 L 14.57 -71.81 L 4.41 -71.81 C 3.81 -71.81 3.36 -71.76 3.05 -71.61 C 2.7 -71.46 2.55 -71.01 2.55 -70.26 L 2.55 -69.55 C 2.6 -69.2 2.65 -68.2 2.65 -66.55 C 2.65 -63.2 2.6 -59.54 2.45 -55.58 Z M 59.49 -2.35 C 59.54 -1.2 59.74 -0.35 59.99 0.15 C 60.24 0.65 60.89 0.85 61.94 0.8 L 71.26 0.8 C 72.21 0.85 73.01 0.8 73.61 0.55 C 74.16 0.3 74.41 -0.25 74.36 -1.15 C 74.36 -2.35 74.31 -3.36 74.26 -4.21 L 74.16 -9.86 C 74.16 -11.17 74.21 -11.97 74.26 -12.22 C 74.31 -12.47 74.36 -13.27 74.36 -14.57 C 74.36 -16.32 74.31 -18.93 74.16 -22.48 L 74.06 -26.54 C 74.06 -27.64 74.01 -28.69 73.96 -29.74 L 73.86 -42.16 C 73.86 -45.87 73.91 -48.62 73.96 -50.38 C 74.01 -56.54 74.41 -62.49 75.16 -68.3 C 75.21 -68.65 75.31 -69 75.36 -69.45 C 75.41 -69.86 75.46 -70.21 75.46 -70.56 C 75.46 -71.01 75.31 -71.41 74.96 -71.71 C 74.61 -71.96 74.06 -72.16 73.21 -72.21 C 72.56 -72.26 71.46 -72.31 69.96 -72.31 C 69.3 -72.31 68.6 -72.31 67.75 -72.26 C 66.9 -72.21 66 -72.26 65.1 -72.31 C 64.9 -72.36 64.65 -72.41 64.3 -72.41 C 62.95 -72.41 62.24 -71.06 62.24 -68.4 L 62.24 -64.1 L 62.04 -60.39 L 61.84 -54.88 L 61.64 -45.52 L 61.44 -35.5 L 60.79 -24.94 C 60.34 -16.17 60.09 -11.52 60.09 -11.07 C 60.09 -9.71 59.94 -8.06 59.69 -6.16 C 59.54 -4.81 59.44 -3.76 59.44 -3.1 C 59.44 -2.75 59.44 -2.5 59.49 -2.35 Z M 87.03 -33.65 C 87.08 -28.89 87.28 -23.24 87.53 -16.73 C 87.73 -10.52 87.83 -6.16 87.83 -3.71 L 87.83 -2.9 C 87.78 -1.7 87.93 -0.9 88.18 -0.5 C 88.53 -0.05 89.18 0.15 90.24 0 C 91.49 -0.15 92.89 -0.25 94.34 -0.4 C 95.79 -0.55 97.1 -0.6 98.2 -0.6 C 98.95 -0.55 99.5 -0.6 99.75 -0.8 C 100 -0.95 100.15 -1.4 100.15 -2.05 C 100.15 -2.55 100.1 -2.95 100.05 -3.3 C 99.85 -4.46 99.7 -7.91 99.6 -13.67 C 99.5 -19.43 99.45 -24.04 99.45 -27.59 C 99.4 -28.64 99.35 -29.54 99.4 -30.4 C 99.45 -31.2 99.45 -31.85 99.45 -32.4 L 99.45 -38.66 L 103.96 -30.15 C 107.56 -23.39 109.82 -19.23 110.72 -17.73 C 112.32 -15.12 114.12 -11.52 116.18 -6.96 L 117.93 -3.51 C 118.58 -2.05 119.28 -1.1 119.93 -0.55 C 120.58 0 121.53 0.3 122.84 0.3 C 123.59 0.3 124.94 0.25 126.84 0.1 C 128.59 -0.05 129.9 -0.1 130.75 -0.1 C 131.55 -0.1 132.1 -0.05 132.35 0 C 132.7 0.05 133.15 0.1 133.6 0.1 C 134.6 0.1 135.15 -0.35 135.25 -1.3 C 135.2 -1.25 135.2 -1.55 135.15 -2.25 C 135 -5.46 134.85 -9.41 134.7 -14.12 C 134.55 -18.78 134.5 -23.13 134.5 -27.19 L 134.5 -50.38 C 134.5 -62.95 134.55 -69.71 134.7 -70.76 C 134.85 -72.01 134.9 -72.76 134.9 -73.01 C 134.9 -73.91 134.7 -74.56 134.3 -74.91 C 133.9 -75.26 133.2 -75.41 132.25 -75.36 C 130.95 -75.16 129.14 -74.96 126.79 -74.81 C 124.44 -74.66 122.48 -74.56 120.98 -74.56 C 119.28 -74.56 117.98 -74.41 117.13 -74.16 C 116.23 -73.91 115.77 -73.11 115.77 -71.81 C 115.72 -70.76 115.67 -68.15 115.62 -63.9 L 115.62 -58.24 L 114.12 -60.59 C 112.97 -62.34 111.97 -63.95 111.12 -65.45 L 110.12 -67.25 C 108.86 -69.5 107.71 -71.26 106.66 -72.51 C 105.61 -73.76 104.26 -74.36 102.71 -74.36 C 101.5 -74.36 100.5 -74.41 99.75 -74.46 C 99 -74.51 98.4 -74.56 98 -74.56 C 97.25 -74.56 96.5 -74.51 95.74 -74.36 C 94.24 -74.01 93.09 -73.81 92.34 -73.76 C 91.54 -73.71 90.64 -73.71 89.69 -73.76 C 88.88 -73.81 88.23 -73.66 87.78 -73.21 C 87.28 -72.76 87.03 -71.86 87.03 -70.56 C 87.03 -70.21 87.08 -69.45 87.23 -68.2 C 87.43 -66.75 87.53 -64.5 87.53 -61.34 C 87.53 -58.99 87.48 -54.68 87.33 -48.42 C 87.13 -43.42 87.03 -38.51 87.03 -33.65 Z M 135.25 -1.3 C 135.25 -1.4 135.25 -1.45 135.25 -1.55 Z M 145.17 -69.4 C 145.17 -69 145.42 -68.25 145.87 -67.15 C 146.32 -66.3 146.72 -65.25 147.12 -64 C 147.97 -61.14 149.38 -56.94 151.33 -51.38 C 153.23 -45.82 154.43 -42.36 154.98 -41.01 C 155.43 -39.76 155.89 -38.36 156.34 -36.81 C 157.04 -34.5 157.59 -32.85 157.99 -31.8 C 158.34 -30.95 158.99 -29.04 159.94 -26.04 L 161.04 -22.88 C 161.19 -22.53 161.19 -22.13 161.14 -21.78 C 161.09 -21.43 160.89 -20.98 160.64 -20.43 C 160.39 -19.88 160.19 -19.38 160.04 -18.98 C 159.89 -18.43 159.69 -17.88 159.49 -17.38 L 158.89 -15.77 C 158.04 -13.92 157.54 -12.47 157.34 -11.37 L 153.68 -1.45 C 153.63 -1.25 153.53 -1.05 153.43 -0.9 C 153.28 -0.7 153.23 -0.5 153.23 -0.3 C 153.23 0.1 153.68 0.3 154.58 0.3 L 168.75 0.1 C 169.16 0.15 169.46 0.05 169.71 -0.25 C 169.96 -0.55 170.16 -1.1 170.36 -1.95 C 170.51 -2.5 170.76 -3.66 171.06 -5.46 C 171.36 -7.26 171.66 -8.56 171.91 -9.41 C 172.11 -10.27 173.36 -13.62 175.72 -19.48 C 178.07 -25.34 179.97 -30.15 181.47 -33.85 L 185.78 -45.12 C 187.88 -50.33 189.39 -54.23 190.29 -56.84 C 190.74 -57.94 191.79 -60.89 193.44 -65.75 L 194.04 -67.45 C 194.19 -67.95 194.34 -68.35 194.49 -68.7 C 194.64 -69.25 194.69 -69.61 194.69 -69.66 C 194.69 -70.11 193.99 -70.46 192.54 -70.66 C 191.29 -70.81 189.84 -70.86 188.13 -70.86 L 182.58 -70.76 C 182.43 -70.76 182.12 -70.76 181.62 -70.81 C 181.07 -70.86 180.57 -70.71 180.02 -70.36 C 179.47 -70.01 179.02 -69.15 178.67 -67.8 C 178.12 -65.45 176.92 -61.54 175.01 -55.98 C 174.51 -55.03 173.61 -52.83 172.26 -49.27 C 170.91 -45.72 169.91 -42.96 169.26 -40.91 L 167.7 -36.51 L 166.9 -33.95 L 165.25 -38.86 C 164.25 -42.01 163.3 -44.62 162.4 -46.67 C 160.44 -51.03 158.79 -55.48 157.34 -59.99 L 154.78 -68.5 C 154.63 -68.85 154.58 -69.15 154.58 -69.5 C 154.58 -69.81 154.53 -70.06 154.38 -70.26 C 154.23 -70.46 153.88 -70.61 153.33 -70.66 C 151.78 -70.76 150.48 -70.81 149.48 -70.81 C 148.97 -70.81 148.57 -70.81 148.22 -70.76 C 147.17 -70.71 146.42 -70.56 145.92 -70.41 C 145.42 -70.21 145.17 -69.86 145.17 -69.4 Z M 231.25 -3.61 L 231.15 -0.3 C 231.15 0.1 231.2 0.35 231.35 0.5 C 231.5 0.65 231.85 0.7 232.45 0.7 L 233.7 0.7 C 235.46 0.7 236.51 0.55 236.91 0.3 C 237.26 0.1 237.51 -0.1 237.66 -0.35 C 237.81 -0.55 237.91 -0.9 237.91 -1.35 C 237.91 -1.9 237.86 -2.35 237.81 -2.75 C 237.66 -3.91 237.56 -7.51 237.41 -13.57 C 237.26 -19.63 237.21 -24.64 237.21 -28.59 C 237.21 -30.25 237.36 -34.85 237.61 -42.36 C 237.86 -50.18 238.01 -55.03 238.01 -56.94 C 238.16 -63.15 238.31 -67 238.56 -68.5 C 238.56 -68.9 238.61 -69.35 238.66 -69.81 C 238.71 -70.26 238.76 -70.61 238.76 -70.96 C 238.71 -71.91 238.36 -72.41 237.71 -72.41 L 233.9 -72.51 C 232.85 -72.51 232.3 -71.61 232.3 -69.86 L 232.4 -67.7 C 232.45 -67.35 232.5 -66.65 232.5 -65.5 C 232.5 -64.35 232.45 -62.84 232.4 -60.89 L 232.1 -52.53 C 231.8 -45.27 231.65 -40.61 231.65 -38.56 L 231.45 -17.03 Z M 246.62 -8.01 C 246.27 -7.36 246.47 -6.76 247.12 -6.16 C 248.42 -4.86 250.58 -3.36 253.63 -1.65 C 256.69 0.05 260.09 0.9 263.85 0.9 C 270.36 0.9 276.27 -0.5 281.52 -3.36 C 286.78 -6.21 289.39 -11.47 289.39 -19.18 C 289.39 -23.69 288.39 -27.44 286.33 -30.4 C 284.28 -33.35 281.93 -35.6 279.37 -37.06 C 276.82 -38.51 273.81 -39.91 270.41 -41.21 C 269.41 -41.56 268.41 -41.96 267.45 -42.36 C 264.15 -44.12 261.49 -46.02 259.49 -48.02 C 257.49 -49.98 256.49 -52.38 256.49 -55.18 C 256.49 -58.44 257.69 -61.19 260.14 -63.35 C 262.55 -65.5 266.1 -66.55 270.81 -66.55 L 270.91 -66.55 C 274.56 -66.55 279.02 -64.7 284.18 -60.94 L 284.88 -60.29 C 285.43 -59.94 285.88 -59.79 286.23 -59.79 C 286.58 -59.79 287.03 -60.24 287.68 -61.14 C 288.29 -61.99 288.69 -62.59 288.89 -62.84 C 289.14 -63.15 289.29 -63.45 289.29 -63.7 C 289.29 -64.15 288.94 -64.65 288.29 -65.1 C 288.13 -65.25 286.58 -66.5 283.73 -68.85 C 280.87 -71.16 276.47 -72.31 270.51 -72.31 C 266.9 -72.31 263.3 -71.51 259.64 -69.86 C 255.99 -68.2 252.93 -65.85 250.48 -62.69 C 248.02 -59.54 246.82 -55.83 246.82 -51.58 C 246.82 -46.47 248.17 -42.36 250.88 -39.21 C 253.58 -36.05 257.34 -33.1 262.1 -30.35 L 266.5 -27.89 C 270.46 -25.79 273.41 -23.94 275.32 -22.38 C 277.17 -20.78 278.12 -18.93 278.12 -16.83 C 278.12 -11.82 276.47 -8.56 273.21 -7.01 C 269.96 -5.46 266.5 -4.71 262.85 -4.71 C 261.09 -4.71 258.94 -5.26 256.39 -6.41 C 253.78 -7.51 252.03 -8.51 251.13 -9.41 C 250.78 -9.76 250.53 -10.12 250.28 -10.37 C 250.03 -10.62 249.83 -10.82 249.68 -10.92 C 249.48 -11.02 249.28 -11.07 249.08 -11.07 L 248.88 -11.07 C 248.48 -11.07 248.02 -10.62 247.52 -9.66 C 246.97 -8.71 246.67 -8.16 246.62 -8.01 Z M 300.2 -0.95 C 300.15 -0.45 300.25 -0.1 300.4 0.15 C 300.55 0.4 301.1 0.5 302.01 0.5 C 303.26 0.5 304.31 0.45 305.16 0.4 L 309.77 0.3 C 310.97 0.3 311.77 0.35 312.17 0.4 L 313.87 0.5 C 315.53 0.5 317.23 0.45 318.88 0.4 C 320.53 0.35 322.09 0.25 323.44 0.2 C 326.49 0 328.9 -0.1 330.6 -0.1 L 350.83 0.2 C 351.68 0.2 352.33 0.15 352.68 0.05 C 353.03 -0.05 353.18 -0.25 353.18 -0.6 L 353.08 -1.15 L 352.68 -5.46 C 352.23 -9.41 352.03 -11.97 352.03 -13.22 L 352.03 -17.93 C 352.03 -18.18 352.08 -18.38 352.13 -18.58 C 352.18 -18.78 352.23 -18.93 352.23 -19.08 C 352.28 -19.43 351.88 -19.63 351.13 -19.68 L 335.51 -20.08 L 316.58 -19.88 C 316.13 -19.83 315.58 -19.83 315.03 -19.83 C 313.87 -19.83 312.57 -19.88 311.12 -19.98 L 308.67 -20.18 C 308.62 -20.28 308.57 -20.48 308.57 -20.73 C 308.57 -20.88 308.57 -21.13 308.52 -21.48 C 308.47 -21.83 308.52 -22.18 308.57 -22.58 C 308.62 -22.93 308.67 -23.79 308.67 -25.24 L 308.57 -31.4 C 308.52 -32.35 308.47 -33.45 308.47 -34.75 L 308.57 -49.42 C 308.57 -50.23 308.72 -55.43 309.07 -65 L 309.27 -70.96 C 309.27 -71.51 309.07 -71.81 308.67 -71.81 L 307.71 -71.81 C 306.56 -71.81 305.76 -71.81 305.21 -71.86 C 304.66 -71.91 304.21 -71.91 303.86 -71.91 L 302.41 -72.01 C 301.66 -71.96 301.25 -71.71 301.25 -71.16 L 301.25 -71.06 L 301.51 -64.5 L 301.61 -52.93 C 301.61 -51.28 301.4 -46.97 301 -39.96 C 300.65 -34.7 300.45 -32.05 300.4 -32.05 C 300.35 -32.05 300.35 -32.2 300.35 -32.45 C 300.35 -31.2 300.4 -29.95 300.45 -28.79 C 300.5 -27.44 300.6 -26.29 300.65 -25.34 L 300.85 -20.53 L 300.55 -9.97 C 300.35 -6.26 300.25 -3.66 300.25 -2.15 C 300.25 -1.8 300.25 -1.4 300.2 -0.95 Z M 300.35 -32.45 C 300.35 -32.6 300.35 -32.75 300.35 -32.9 Z M 355.39 -0.4 C 355.39 -0.15 355.54 0 355.89 0 L 361.95 0 C 362.3 0 362.55 -0.1 362.75 -0.35 C 362.9 -0.6 363.1 -1.1 363.3 -1.95 L 364.1 -4.91 L 365.25 -9.31 C 365.45 -10.42 365.7 -11.62 366 -12.87 C 366.3 -14.12 366.55 -15.27 366.75 -16.22 L 367.4 -18.78 C 367.45 -18.98 367.55 -19.28 367.6 -19.63 C 367.65 -19.98 367.81 -20.33 367.96 -20.63 C 368.11 -20.88 368.36 -21.03 368.71 -21.03 L 374.16 -20.93 C 375.72 -20.93 376.82 -20.98 377.42 -21.03 C 379.37 -21.18 381.33 -21.23 383.28 -21.23 C 386.13 -21.23 387.84 -21.28 388.39 -21.43 C 389.24 -21.48 389.99 -21.58 390.74 -21.63 C 391.44 -21.68 392.04 -21.73 392.49 -21.73 C 392.99 -21.73 393.34 -21.58 393.59 -21.33 C 393.84 -21.08 394.09 -20.53 394.35 -19.68 L 395.7 -16.88 C 396.3 -15.52 396.7 -14.47 396.9 -13.82 C 397.4 -12.37 398.1 -10.47 399.05 -8.01 C 399.95 -5.56 400.55 -3.96 400.91 -3.3 C 401.06 -2.95 401.21 -2.5 401.46 -2.05 C 401.66 -1.6 401.91 -1.1 402.16 -0.65 C 402.41 -0.15 402.71 0.1 402.96 0.1 L 410.37 0.1 C 411.62 0.1 412.22 -0.15 412.22 -0.7 C 412.22 -0.9 412.02 -1.35 411.67 -2.05 C 410.87 -3 409.67 -5.26 408.12 -8.71 L 406.86 -11.27 C 402.11 -20.48 399.15 -26.29 398.05 -28.69 C 397.6 -29.95 396.55 -32.2 395 -35.4 C 391.89 -41.96 389.99 -46.27 389.34 -48.22 C 387.79 -52.73 386.28 -56.39 384.93 -59.19 C 381.48 -66.55 379.67 -70.61 379.47 -71.46 C 379.42 -71.76 379.27 -72.26 379.07 -72.96 C 378.87 -73.61 378.57 -74.11 378.17 -74.36 C 377.62 -74.91 377.12 -74.66 376.72 -73.61 C 375.87 -71.36 375.22 -69.15 374.67 -67.05 L 372.11 -58.89 C 370.81 -54.68 369.51 -50.18 368.21 -45.42 C 367.81 -44.07 367.5 -42.91 367.3 -41.96 C 366.75 -40.06 366.15 -37.96 365.55 -35.6 C 363.6 -30.15 362.35 -25.74 361.75 -22.33 C 361.3 -19.78 359.79 -14.22 357.24 -5.76 C 356.79 -4.46 356.34 -3.15 355.79 -1.85 C 355.54 -1 355.39 -0.55 355.39 -0.4 Z M 371.71 -36 C 371.71 -36.46 371.81 -37.01 372.01 -37.66 C 372.21 -38.21 372.56 -39.21 373.11 -40.66 C 373.61 -42.11 374.01 -43.37 374.26 -44.42 C 374.82 -46.47 375.67 -49.47 376.92 -53.43 C 377.07 -53.98 377.27 -54.73 377.52 -55.78 C 377.77 -56.84 377.97 -57.34 378.17 -57.34 C 378.32 -57.34 378.42 -57.24 378.57 -57.04 C 378.72 -56.84 378.87 -56.59 379.02 -56.23 L 379.47 -55.18 C 379.67 -54.78 379.97 -54.03 380.37 -52.93 C 380.72 -51.83 381.28 -50.48 381.93 -48.82 C 382.43 -47.37 383.28 -45.27 384.53 -42.41 C 385.78 -39.56 386.53 -37.81 386.88 -37.21 C 387.08 -36.81 387.18 -36.56 387.18 -36.4 C 387.18 -36.25 387.08 -36.15 386.88 -36.1 C 386.68 -36.05 386.43 -36 386.08 -36 C 385.73 -36 385.28 -35.95 384.83 -35.9 C 384.08 -35.75 382.18 -35.65 379.22 -35.55 C 376.27 -35.45 374.06 -35.4 372.61 -35.4 C 372.01 -35.4 371.71 -35.6 371.71 -36 Z M 419.68 -33.65 C 419.73 -28.89 419.93 -23.24 420.18 -16.73 C 420.38 -10.52 420.48 -6.16 420.48 -3.71 L 420.48 -2.9 C 420.43 -1.7 420.58 -0.9 420.84 -0.5 C 421.19 -0.05 421.84 0.15 422.89 0 C 424.14 -0.15 425.54 -0.25 426.99 -0.4 C 428.45 -0.55 429.75 -0.6 430.85 -0.6 C 431.6 -0.55 432.15 -0.6 432.4 -0.8 C 432.65 -0.95 432.8 -1.4 432.8 -2.05 C 432.8 -2.55 432.75 -2.95 432.7 -3.3 C 432.5 -4.46 432.35 -7.91 432.25 -13.67 C 432.15 -19.43 432.1 -24.04 432.1 -27.59 C 432.05 -28.64 432 -29.54 432.05 -30.4 C 432.1 -31.2 432.1 -31.85 432.1 -32.4 L 432.1 -38.66 L 436.61 -30.15 C 440.21 -23.39 442.47 -19.23 443.37 -17.73 C 444.97 -15.12 446.77 -11.52 448.83 -6.96 L 450.58 -3.51 C 451.23 -2.05 451.93 -1.1 452.58 -0.55 C 453.23 0 454.19 0.3 455.49 0.3 C 456.24 0.3 457.59 0.25 459.49 0.1 C 461.25 -0.05 462.55 -0.1 463.4 -0.1 C 464.2 -0.1 464.75 -0.05 465 0 C 465.35 0.05 465.8 0.1 466.25 0.1 C 467.26 0.1 467.81 -0.35 467.91 -1.3 C 467.86 -1.25 467.86 -1.55 467.81 -2.25 C 467.66 -5.46 467.51 -9.41 467.36 -14.12 C 467.21 -18.78 467.16 -23.13 467.16 -27.19 L 467.16 -50.38 C 467.16 -62.95 467.21 -69.71 467.36 -70.76 C 467.51 -72.01 467.56 -72.76 467.56 -73.01 C 467.56 -73.91 467.36 -74.56 466.95 -74.91 C 466.55 -75.26 465.85 -75.41 464.9 -75.36 C 463.6 -75.16 461.8 -74.96 459.44 -74.81 C 457.09 -74.66 455.14 -74.56 453.63 -74.56 C 451.93 -74.56 450.63 -74.41 449.78 -74.16 C 448.88 -73.91 448.43 -73.11 448.43 -71.81 C 448.38 -70.76 448.33 -68.15 448.28 -63.9 L 448.28 -58.24 L 446.77 -60.59 C 445.62 -62.34 444.62 -63.95 443.77 -65.45 L 442.77 -67.25 C 441.52 -69.5 440.36 -71.26 439.31 -72.51 C 438.26 -73.76 436.91 -74.36 435.36 -74.36 C 434.16 -74.36 433.15 -74.41 432.4 -74.46 C 431.65 -74.51 431.05 -74.56 430.65 -74.56 C 429.9 -74.56 429.15 -74.51 428.4 -74.36 C 426.89 -74.01 425.74 -73.81 424.99 -73.76 C 424.19 -73.71 423.29 -73.71 422.34 -73.76 C 421.54 -73.81 420.89 -73.66 420.43 -73.21 C 419.93 -72.76 419.68 -71.86 419.68 -70.56 C 419.68 -70.21 419.73 -69.45 419.88 -68.2 C 420.08 -66.75 420.18 -64.5 420.18 -61.34 C 420.18 -58.99 420.13 -54.68 419.98 -48.42 C 419.78 -43.42 419.68 -38.51 419.68 -33.65 Z M 467.91 -1.3 C 467.91 -1.4 467.91 -1.45 467.91 -1.55 Z M 480.78 -67.4 L 480.98 -60.94 C 481.03 -59.69 481.13 -58.24 481.18 -56.59 C 481.23 -54.88 481.28 -53.13 481.28 -51.38 L 481.18 -30.75 L 481.38 -12.22 C 481.43 -10.07 481.48 -7.81 481.48 -5.56 C 481.48 -4.71 481.48 -4.11 481.53 -3.66 C 481.58 -3.2 481.58 -2.8 481.58 -2.55 C 481.58 -2.2 481.53 -1.95 481.48 -1.75 C 481.28 -1.35 481.28 -1 481.48 -0.65 C 481.68 -0.3 482.18 -0.1 482.93 -0.1 L 493.39 -0.1 C 496.2 -0.1 500.05 -0.55 504.91 -1.4 C 509.77 -2.25 513.83 -3.76 517.08 -5.86 C 519.48 -7.41 521.59 -9.86 523.39 -13.12 C 525.19 -16.37 526.59 -19.93 527.65 -23.79 C 528.7 -27.64 529.2 -31.1 529.2 -34.15 C 529.2 -40.01 528.55 -45.42 527.25 -50.33 C 525.94 -55.18 523.29 -59.39 519.23 -62.95 C 516.48 -65.35 513.93 -67.2 511.52 -68.5 C 509.07 -69.81 507.12 -70.51 505.56 -70.66 C 504.01 -70.81 503.06 -70.86 502.81 -70.86 C 499.75 -71.21 496.3 -71.36 492.44 -71.36 L 488.49 -71.46 C 487.64 -71.46 486.83 -71.41 486.08 -71.36 C 485.28 -71.31 484.63 -71.26 484.08 -71.26 C 483.78 -71.26 483.48 -71.31 483.13 -71.46 C 482.78 -71.56 482.48 -71.61 482.23 -71.61 L 481.93 -71.61 C 481.48 -71.61 481.23 -71.31 481.08 -70.71 C 480.93 -70.06 480.83 -68.95 480.78 -67.4 Z M 498 -42.76 C 498 -48.62 498.1 -53.23 498.3 -56.59 L 498.7 -65.95 C 503.46 -65.9 507.77 -64.7 511.52 -62.44 C 515.23 -60.19 518.28 -56.84 520.74 -52.28 C 523.14 -47.72 524.34 -41.66 524.34 -34.15 C 524.34 -26.59 523.14 -20.58 520.69 -16.12 C 518.23 -11.67 515.08 -8.46 511.32 -6.56 C 507.87 -4.81 504.11 -3.96 500.05 -3.96 C 499.5 -3.96 498.95 -3.96 498.4 -4.01 C 498.4 -8.51 498.45 -11.77 498.5 -13.82 L 498.6 -27.09 C 498.6 -29.14 498.5 -31.3 498.3 -33.65 C 498.1 -39.21 498 -42.21 498 -42.76 Z" transform="translate(-265.71651102965495, 37.23468749999999)" paint-order="stroke" style="stroke: rgb(79,8,13); stroke-width: 31.07721185688735; stroke-dasharray: none; stroke-linecap: butt; stroke-dashoffset: 0; stroke-linejoin: miter; stroke-miterlimit: 4; fill: url(#SVGID_202744); fill-rule: nonzero; opacity: 1;"/>
</g>
</g>
</g>
</svg>