<?xml version="1.0" encoding="UTF-8"?>
<svg width="100pt" height="100pt" version="1.1" viewBox="0 0 100 100" xmlns="http://www.w3.org/2000/svg">
 <path d="m10 50.211c0 1.6992 1.3555 3.0039 4.0625 5.6211 4.5664 4.4102 11.016 10.508 16.125 14.863 3.4883 2.9766 7.8711 6.4297 11.93 9.543 5.1719 3.9688 7.7539 5.9531 9.9648 4.9062 2.207-1.0469 2.3125-4.3203 2.5156-10.875 0.082032-2.6719 0.16406-5.5312 0.23438-8.4336 4.1172 0.20312 8.7344 0.375 12.48 0.375 4.7188 0 10.828-0.27734 15.566-0.53906 3.4961-0.19141 5.2422-0.28906 6.3359-1.4453 1.0977-1.1562 1.0977-2.9258 1.0977-6.4648v-14.102c0-3.5391 0-5.3086-1.0977-6.4648-1.0938-1.1562-2.8398-1.2539-6.3359-1.4453-4.7383-0.26172-10.848-0.53906-15.566-0.53906-3.7383 0-8.3477 0.17187-12.457 0.375-0.074219-3.2422-0.16406-6.457-0.25781-9.4336-0.20312-6.5547-0.30859-9.8281-2.5156-10.875-2.2109-1.0469-4.793 0.9375-9.9648 4.9062-4.0586 3.1133-8.4414 6.5664-11.93 9.543-5.1094 4.3555-11.559 10.453-16.125 14.863-2.707 2.6172-4.0625 3.9219-4.0625 5.6211z" fill="#fff" fill-rule="evenodd"/>
</svg>
