<?xml version="1.0" encoding="UTF-8"?>
<svg width="100pt" height="100pt" version="1.1" viewBox="0 0 100 100" xmlns="http://www.w3.org/2000/svg">
 <path d="m50 90.156c1.6992 0 3.0039-1.3555 5.6211-4.0625 4.4102-4.5703 10.508-11.016 14.863-16.125 2.9766-3.4883 6.4297-7.875 9.543-11.93 3.9688-5.1719 5.9531-7.7578 4.9062-9.9648-1.0469-2.2109-4.3203-2.3125-10.871-2.5156-2.6719-0.082032-5.5352-0.16406-8.4375-0.23828 0.20312-4.1133 0.375-8.7305 0.375-12.477 0-4.7188-0.27734-10.828-0.53906-15.566-0.19141-3.4961-0.28906-5.2461-1.4453-6.3398s-2.9258-1.0938-6.4648-1.0938h-14.102c-3.5391 0-5.3086 0-6.4648 1.0938s-1.2539 2.8438-1.4453 6.3398c-0.26172 4.7383-0.53906 10.848-0.53906 15.566 0 3.7383 0.17188 8.3477 0.375 12.453-3.2422 0.078125-6.457 0.16797-9.4336 0.26172-6.5547 0.20312-9.8281 0.30469-10.875 2.5156-1.0469 2.207 0.9375 4.793 4.9062 9.9648 3.1133 4.0547 6.5664 8.4414 9.543 11.93 4.3555 5.1094 10.453 11.555 14.863 16.125 2.6172 2.707 3.9219 4.0625 5.6211 4.0625z" fill="#fff" fill-rule="evenodd"/>
</svg>
