<?xml version="1.0" encoding="UTF-8"?>
<svg width="100pt" height="100pt" version="1.1" viewBox="0 0 100 100" xmlns="http://www.w3.org/2000/svg">
 <path d="m71.102 12.398h-1.6016v-0.60156c0-0.89844-0.69922-1.6016-1.6016-1.6016l-10.598 0.003907c-0.89844 0-1.6016 0.69922-1.6016 1.6016v0.60156h-1.3984l-22-7.3008c-0.80078-0.30078-1.6016 0.10156-1.8984 0.89844-4.3008 10.301-4.3008 21.602 0 31.898 0.19922 0.60156 0.80078 1 1.3984 1 0.19922 0 0.30078 0 0.5-0.10156l22-7.3008h1.3984v56.801c0 3.8008 3.1016 6.8008 6.8984 6.8008 3.8008 0 6.8008-3.1016 6.8008-6.8008v-56.898h1.6016c0.89844 0 1.6016-0.69922 1.6016-1.6016v-15.797c0.097657-0.89844-0.60156-1.6016-1.5-1.6016zm-4.7031 75.801c0 2.1016-1.6992 3.6992-3.6992 3.6992-2.1016 0-3.8008-1.6992-3.8008-3.6992v-56.801h7.5zm3.2031-59.898h-15.402c-0.19922 0-0.30078 0-0.5 0.10156l-20.801 6.8984c-3.1992-8.6992-3.1992-18.102 0-26.801l20.801 6.8984c0.19922 0.10156 0.30078 0.10156 0.5 0.10156h15.398z" fill="#fff"/>
</svg>
