<?xml version="1.0" encoding="UTF-8"?>
<svg width="100pt" height="100pt" version="1.1" viewBox="0 0 100 100" xmlns="http://www.w3.org/2000/svg">
 <path d="m52.281 69.922v-10.66c0-1.7891 0.12891-3.5898 0.37891-5.3594l0.73047-5.1484h-6.7695l0.73047 5.1484c0.25 1.7695 0.37891 3.5703 0.37891 5.3594v10.66h4.5703z" fill="#fff"/>
 <path d="m39.859 72.27h20.281v2.0312h-20.281z" fill="#fff"/>
 <path d="m50 90c5.1914 0 9.4805-3.9297 10.07-8.9688h-20.141c0.58984 5.0391 4.8711 8.9688 10.07 8.9688z" fill="#fff"/>
 <path d="m39.859 76.648h20.281v2.0312h-20.281z" fill="#fff"/>
 <path d="m62.148 67.219c0.10156-0.17969 0.14844-0.37891 0.14844-0.57812v-5.1602c0-0.60156 0.14844-1.1914 0.44141-1.7109l7.6406-13.77c2.2812-3.8086 3.4414-8.1484 3.3789-12.57-0.17187-12.422-10.012-22.691-22.391-23.391-6.6094-0.37109-12.91 1.9219-17.711 6.4492-4.8008 4.5391-7.4492 10.68-7.4492 17.281 0 4.3008 1.1602 8.5195 3.3594 12.191l7.6602 13.809c0.28906 0.51953 0.44141 1.1211 0.44141 1.7109v5.1602c0 0.19922 0.050781 0.39844 0.14844 0.57812l1.5195 2.6914h6v-10.66c0-1.6719-0.12109-3.3711-0.35156-5.0312l-0.76953-5.4805h-2.7383c-1.7188 0-3.25-0.96094-4-2.5-0.75-1.5391-0.55859-3.3398 0.5-4.6914 1.1211-1.4297 2.8984-2.0195 4.6484-1.5586 1.75 0.46875 3 1.8789 3.25 3.6719l0.37891 2.7188h7.4414l0.37891-2.7188c0.25-1.8008 1.5-3.2109 3.25-3.6719 1.75-0.46875 3.5391 0.12891 4.6484 1.5586 1.0586 1.3516 1.25 3.1484 0.5 4.6914-0.75 1.5391-2.2812 2.5-4 2.5h-2.7383l-0.76953 5.4805c-0.23047 1.6602-0.35156 3.3516-0.35156 5.0312v10.66h5.9883l1.5195-2.6914z" fill="#fff"/>
 <path d="m42.039 42.27c-0.19141-0.050781-0.37891-0.078125-0.57031-0.078125-0.62891 0-1.2109 0.28125-1.6211 0.80859-0.51172 0.64844-0.58984 1.4688-0.23047 2.2109 0.35937 0.73828 1.0586 1.1797 1.8789 1.1797h2.4102l-0.33984-2.3906c-0.12109-0.85938-0.69141-1.5117-1.5312-1.7305z" fill="#fff"/>
 <path d="m60.391 45.211c0.35938-0.73828 0.26953-1.5586-0.23047-2.2109-0.53125-0.67969-1.3516-0.96094-2.1914-0.73047-0.83984 0.21875-1.4102 0.87109-1.5312 1.7305l-0.33984 2.3906h2.4102c0.82031 0 1.5195-0.44141 1.8789-1.1797z" fill="#fff"/>
</svg>
