<?xml version="1.0" encoding="UTF-8"?>
<svg width="100pt" height="100pt" version="1.1" viewBox="0 0 100 100" xmlns="http://www.w3.org/2000/svg">
 <path d="m95.531 41.219-10.188-1.4062c-0.75-2.6562-1.8125-5.2031-3.1406-7.6094l6.2031-8.1875c0.46875-0.625 0.40625-1.4844-0.14062-2.0469l-10.234-10.234c-0.5625-0.54688-1.4375-0.60938-2.0469-0.14062l-8.2031 6.2031c-2.3906-1.3281-4.9375-2.3906-7.5781-3.1406l-1.4219-10.188c-0.10938-0.76562-0.76562-1.3438-1.5469-1.3438h-14.469c-0.78125 0-1.4375 0.57812-1.5469 1.3438l-1.4219 10.188c-2.6406 0.75-5.1875 1.8125-7.5938 3.1406l-8.1875-6.2031c-0.60938-0.46875-1.4844-0.40625-2.0469 0.14062l-10.234 10.234c-0.54688 0.5625-0.60938 1.4219-0.14062 2.0469l6.2031 8.1875c-1.3281 2.4062-2.3906 4.9531-3.1406 7.6094l-10.188 1.4062c-0.76562 0.10938-1.3438 0.76562-1.3438 1.5469v14.469c0 0.78125 0.57812 1.4375 1.3438 1.5469l10.188 1.4062c0.75 2.6562 1.8125 5.2031 3.1406 7.6094l-6.2031 8.1875c-0.46875 0.625-0.40625 1.4844 0.14062 2.0469l10.234 10.234c0.5625 0.54688 1.4375 0.60938 2.0469 0.14062l8.2031-6.2031c2.3906 1.3281 4.9375 2.3906 7.5781 3.1406l1.4219 10.188c0.10938 0.76562 0.76562 1.3438 1.5469 1.3438h14.469c0.78125 0 1.4375-0.57812 1.5469-1.3438l1.4219-10.188c2.6406-0.75 5.1875-1.8125 7.5781-3.1406l8.2031 6.2031c0.60938 0.46875 1.4844 0.40625 2.0469-0.14062l10.234-10.234c0.54688-0.5625 0.60938-1.4219 0.14062-2.0469l-6.2031-8.1875c1.3281-2.4062 2.3906-4.9531 3.1406-7.6094l10.188-1.4062c0.76562-0.10938 1.3438-0.76562 1.3438-1.5469v-14.469c0-0.78125-0.57812-1.4375-1.3438-1.5469zm-25.906 8.7812c0 10.812-8.8125 19.625-19.625 19.625s-19.625-8.8125-19.625-19.625 8.8125-19.625 19.625-19.625 19.625 8.8125 19.625 19.625z" fill="#fff"/>
</svg>
