<?xml version="1.0" encoding="UTF-8"?>
<svg width="100pt" height="100pt" version="1.1" viewBox="0 0 100 100" xmlns="http://www.w3.org/2000/svg">
 <path d="m66.168 59.219c-0.45312 0.23438-0.89062 0.53125-1.2812 0.92188-1.4688 1.4688-1.8125 3.6406-1.0312 5.4531l4.3438-4.3438z" fill="#fff"/>
 <path d="m82.527 77.781c-0.9375 0.92188-2.1719 1.4375-3.4844 1.4375s-2.5469-0.51562-3.4844-1.4375l-10.672-10.672c-0.45312-0.45312-0.79688-0.96875-1.0312-1.5156l4.3438-4.3438-2.0312-2.0312c1.8438-0.90625 4.1406-0.60938 5.6719 0.92188l10.688 10.688c1.9062 1.9219 1.9062 5.0312 0 6.9531z" fill="#fff"/>
 <path d="m43.219 47.371c-9.2422-1.3203-11.867-11.418-11.973-11.852l-0.21484-0.85938 4.1836-4.1836 2.2109 2.2109-2.8906 2.8906c0.76172 2.1484 3.3164 7.8672 9.125 8.6992z" fill="#fff"/>
 <path d="m58.246 54.938-0.42188 0.35938-2.5312 2.25-0.0625 0.0625-0.078125 0.0625c-3.0469 2.7031-3.4062 4.7188-3.3438 5.6719 0 0.14062 0.015625 0.28125 0.0625 0.39062-0.21875 0.17188-0.4375 0.35938-0.64062 0.5625-0.64062 0.64062-1.125 1.3594-1.4688 2.125-0.42188-0.5-0.75-1.1406-0.92188-1.8594-0.34375-1.375-0.40625-3.9219 2.1562-7.0781-4.9531-1.9062-7.7812-7.9375-8.7031-10.266-0.20312-0.5-0.3125-0.82812-0.32812-0.90625l-0.3125-0.90625 4.25-4.25 2.2031 2.2031-1.1094 1.1094-1.7344 1.75c0.9375 2.2656 3.7812 8.1875 8.25 8.6875 0.20312 0.015625 0.40625 0.03125 0.60938 0.03125z" fill="#fff"/>
 <path d="m53.016 55.398 3.5625-3.5625 2.2109 2.2109-3.5625 3.5625z" fill="#fff"/>
 <path d="m61.762 74.812c-1.4531 1.4531-3.3594 2.1719-5.2656 2.1719s-3.8125-0.71875-5.2656-2.1719c-1.4531-1.4375-2.1719-3.3438-2.1719-5.25 0-1.0781 0.23438-2.1562 0.70312-3.1406 0.34375-0.76562 0.82812-1.4844 1.4688-2.125 0.20312-0.20312 0.42188-0.39062 0.64062-0.5625 2.7344-2.1719 6.6562-2.1406 9.3594 0.0625 0.1875 0.17188 0.35938 0.32812 0.53125 0.5 0.59375 0.59375 1.0625 1.2656 1.4062 1.9844 1.3594 2.7812 0.89062 6.2344-1.4062 8.5312z" fill="#fff"/>
 <path d="m68.199 61.25-5.0312 5.0312c-0.34375-0.71875-0.8125-1.3906-1.4062-1.9844-0.17188-0.17188-0.34375-0.32812-0.53125-0.5l2.5469-2.5469-36.859-36.859c-0.70312-0.70312-1.8594-0.70312-2.5625 0-0.32812 0.32812-0.4375 0.82812-0.28125 1.25 2.0156 5.5625 6.4531 7.2969 8.1875 7.7812 0.4375 0.125 0.70312 0.17188 0.71875 0.17188l-0.4375 3.0938c-0.0625-0.015625-0.4375-0.0625-1-0.21875h-0.015625c-2.0781-0.5625-6.875-2.4062-9.625-7.9688-0.28125-0.5625-0.53125-1.1562-0.76562-1.7969-0.57812-1.5625-0.17188-3.3438 1.0156-4.5156 0.26562-0.26562 0.5625-0.5 0.89062-0.6875 1.875-1.1562 4.4844-0.92188 6.0938 0.6875z" fill="#fff"/>
 <path d="m21.902 28.5c1.2344-2.6562 2.4219-4.25 2.4688-4.2969l-0.5-0.57812 0.75 0.4375c0.78125-1.375-0.14062-2.1406-0.32812-2.2812-0.26562-0.1875-0.73438-0.39062-1.25-0.28125-0.3125 0.0625-0.65625 0.23438-0.96875 0.57812-2.5469 2.75-12.422 19.781 0.40625 35.688 0.21875-0.42188 0.51562-0.82812 0.875-1.1875 0.42188-0.42188 0.89062-0.75 1.4062-0.96875v-0.015625c-8.4062-10.578-5.5469-21.328-2.8594-27.094z" fill="#fff"/>
 <path d="m31.23 62.25c-0.21875 0.46875-0.53125 0.90625-0.92188 1.2969s-0.82812 0.70312-1.2969 0.92188c-0.6875 0.34375-1.4375 0.51562-2.1875 0.51562-1.25 0-2.5156-0.48438-3.4688-1.4375-1.5625-1.5625-1.8594-3.9219-0.875-5.7812 0.21875-0.42188 0.51562-0.82812 0.875-1.1875 0.42188-0.42188 0.89062-0.75 1.4062-0.96875v-0.015625c1.8125-0.84375 4.0469-0.5 5.5469 0.98438 1.5312 1.5312 1.8438 3.8281 0.92188 5.6719z" fill="#fff"/>
 <path d="m35.059 73.031c-0.96875 0.96875-2.2188 1.4375-3.4844 1.4375s-2.5156-0.46875-3.4844-1.4375l-0.078125-0.078125-1.2656 1.2656-2.2031-2.2031 3.4688-3.4844 2.2969 2.2969c0.6875 0.70312 1.8281 0.70312 2.5312 0s0.70312-1.8438 0-2.5469l-3.8281-3.8125c0.46875-0.21875 0.90625-0.53125 1.2969-0.92188s0.70312-0.82812 0.92188-1.2969l3.8281 3.8281c1.9062 1.9219 1.9062 5.0312 0 6.9531z" fill="#fff"/>
</svg>
