<?xml version="1.0" encoding="UTF-8"?>
<svg width="100pt" height="100pt" version="1.1" viewBox="0 0 100 100" xmlns="http://www.w3.org/2000/svg">
 <path d="m53.309 30.984 10.836 11.137-48.453 53.57c-2.1055 2.2578-5.8711 2.2578-8.1289 0l-5.8672-6.0195c-2.2578-2.1055-2.2578-5.8672 0-8.125z" fill="#fff"/>
 <path d="m98.762 42.418-8.1289 8.2773c-1.6523 1.6562-4.2148 1.6562-6.0195 0l-1.8047-1.9531c-1.3555-1.2031-1.9609-3.4648-1.2031-4.5156 1.3516-0.90234 0.90234-3.6094-1.6602-6.0195-3.6055-3.7617-8.2734-3.9102-10.078-1.957-0.75 0.60156-3.1602 3.1602-3.1602 3.1602l-11.141-10.984 1.8086-1.8086s0.44922-0.44922 1.3516-1.5039c3.4648-3.4609-0.15234-7.375-0.15234-7.375-9.7773-9.6328-23.473-9.4805-23.473-9.4805l-0.15234-3.4648c27.539-7.0742 37.922 4.9688 41.688 8.7305 3.457 3.4609 7.0703 7.0703 7.9727 7.9766 1.9531 1.9531 0 7.5195 2.8555 10.684 1.3555 1.3516 3.1602 1.957 4.5156 1.957 1.5078-1.3516 3.9102-0.90234 5.1133 0.44922l1.6602 1.8086c1.6602 1.6602 1.6602 4.2188 0.007813 6.0195z" fill="#fff"/>
</svg>
