<?xml version="1.0" encoding="UTF-8"?>
<svg width="100pt" height="100pt" version="1.1" viewBox="0 0 100 100" xmlns="http://www.w3.org/2000/svg">
 <path d="m46.398 25.371c-10.133 0.67578-18.566 4.1484-22.367 8.7734-0.26172 0.32031-0.29688 0.77344-0.085938 1.1289 0.21094 0.35547 0.625 0.53906 1.0352 0.46094 6.7891-1.3125 13.582-2.1055 20.375-2.3594v1.3945c0 0.54297 0.44141 0.98438 0.98438 0.98438h0.058594v41.797c0 0.54297 0.44141 0.98438 0.98437 0.98438h6.2031c0.54687 0 0.98437-0.44141 0.98437-0.98438v-41.797c0.53906-0.007812 0.97266-0.44531 0.97266-0.98438v-1.3711c6.4922 0.27344 12.984 1.0469 19.473 2.3359 0.41016 0.082031 0.82422-0.10156 1.0391-0.46094 0.21094-0.35547 0.17969-0.80859-0.085938-1.1289-3.6758-4.4766-11.695-7.875-21.398-8.6992v-2.9961c0-0.54297-0.4375-0.98438-0.98437-0.98438h-6.2031c-0.54297 0-0.98437 0.44141-0.98437 0.98438zm6.2031 10.383h-4.2344v40.812h4.2344zm0.97266-1.9688h-6.25v-1.4297c0-0.26562-0.10547-0.51953-0.29688-0.70703-0.19141-0.18359-0.44922-0.28516-0.71484-0.27734-6.1602 0.18359-12.32 0.80078-18.477 1.8477 4.7227-3.6406 12.902-6 22.164-6 9.2461 0 17.414 2.3516 22.148 5.9844-5.8555-1.0117-11.703-1.6133-17.555-1.8125-0.26562-0.007813-0.52344 0.089844-0.71875 0.27734-0.1875 0.18359-0.30078 0.44141-0.30078 0.70703zm-0.97266-8.4688v-1.8828h-4.2344v1.8438c0.53906-0.015625 1.0859-0.023438 1.6328-0.023438 0.87891 0 1.7461 0.019532 2.6016 0.0625z" fill="#fff" fill-rule="evenodd"/>
</svg>
